<?xml version="1.0" encoding="utf-8"?>
<!-- Generator: Adobe Illustrator 25.0.0, SVG Export Plug-In . SVG Version: 6.00 Build 0)  -->
<svg version="1.1" id="Capa_1" xmlns="http://www.w3.org/2000/svg" xmlns:xlink="http://www.w3.org/1999/xlink" x="0px" y="0px"
	 viewBox="0 0 484.81 192.42" style="enable-background:new 0 0 484.81 192.42;" xml:space="preserve">
<style type="text/css">
	.st0{fill:#FFFFFF;}
	.st1{fill:#EE7328;}
</style>
<g>
	<g>
		<path class="st0" d="M80.01,114.69c-8.64-2.97-17.18-6.24-23.39-13.36c-2.16-2.47-3.66-5.52-5.15-8.57
			c14.9,5.12,29.21,11.39,44.6,14.13c0.21-0.42,0.42-0.85,0.63-1.27c-1.24-0.76-2.39-1.78-3.73-2.25
			c-8.13-2.83-16.38-5.34-24.46-8.31c-11.77-4.34-22.93-9.77-31.73-19.14c-6.83-7.27-10.43-15.86-11.12-26.37
			c16.03,11.6,31.41,23.61,51.1,27.5c-7.81-4.6-15.7-9.08-23.41-13.84C42.32,56.4,31.61,49.05,22.97,39.24
			C14.27,29.35,9.7,17.7,9.5,4.47C9.48,2.92,9.65,1.43,10.03,0H0v23.67v13.97v20.84v30.63v22.12v14.61v23.04h83.09
			c20.85,0,36.18-5.28,45.76-14c-2.67-2.71-6.13-4.95-10.32-6.78C106.11,122.67,92.87,119.11,80.01,114.69z"/>
		<path class="st0" d="M136.26,89.1C136.26,89.1,136.27,89.1,136.26,89.1l0.99-2.21l1.5-3c0,0-1.67,0.7-4.4,2.33
			c-5.49-7.3-14.29-12.01-25.35-15.19c16.06-5.53,26.77-16.38,26.77-34.03v-0.43c0-10.21-3.85-17.86-9.21-23.18
			C117.78,4.68,104.71,0,83.94,0H17.15c27.58,40.78,66.3,68.06,108.05,90.84l1.41,0.78c-7.85,6.36-8.01,12.74-8.01,12.74
			c-6.73,5.02-5.18,13.3-5.18,13.3s3.91-2.81,8.79-4.23s10.27-0.97,15.76,1.66c0.63,0.3,1.23,0.62,1.83,0.95
			c0.58-2.7,0.88-5.51,0.88-8.42v-0.43C140.69,99.96,139.13,94.02,136.26,89.1z M126.75,101.29l-5.92,2.62l6.51-6.62l-0.88,1.71
			L126.75,101.29z"/>
	</g>
</g>
<g>
	<path class="st1" d="M165.98,2.56h32.35v155.38h-32.35V2.56z"/>
	<path class="st1" d="M338.59,130.91c-5.39,9.08-12.81,16.28-22.24,21.6c-9.44,5.32-19.97,7.98-31.61,7.98
		c-11.49,0-21.96-2.62-31.39-7.88c-9.44-5.25-16.81-12.38-22.14-21.39c-5.32-9.01-7.98-18.91-7.98-29.69v-0.43
		c0-10.78,2.69-20.72,8.09-29.8c5.39-9.08,12.8-16.28,22.24-21.6c9.44-5.32,19.97-7.98,31.61-7.98c11.49,0,21.96,2.63,31.39,7.88
		c9.44,5.25,16.81,12.38,22.14,21.39c5.32,9.01,7.98,18.91,7.98,29.69v0.43C346.68,111.89,343.98,121.83,338.59,130.91z
		 M310.92,85.47c-2.55-4.75-6.1-8.58-10.64-11.49c-4.54-2.91-9.72-4.36-15.54-4.36c-8.94,0-16.11,2.98-21.5,8.94
		c-5.39,5.96-8.09,13.34-8.09,22.14v0.43c0,5.68,1.28,10.89,3.83,15.64c2.55,4.76,6.1,8.59,10.64,11.49
		c4.54,2.91,9.72,4.36,15.54,4.36c8.94,0,16.1-2.98,21.5-8.94c5.39-5.96,8.09-13.34,8.09-22.14v-0.43
		C314.75,95.44,313.48,90.22,310.92,85.47z"/>
	<path class="st1" d="M469.17,178.16c-10.43,9.5-26.43,14.26-48,14.26c-18.59,0-35.41-3.97-50.44-11.92l11.07-24.26
		c6.1,3.41,12.24,5.99,18.41,7.77c6.17,1.77,12.88,2.66,20.11,2.66c21.71,0,32.57-10.36,32.57-31.08v-5.53
		c-5.11,6.25-10.54,10.89-16.28,13.94c-5.75,3.05-12.74,4.58-20.96,4.58c-9.08,0-17.49-2.13-25.22-6.38
		c-7.74-4.26-13.91-10.39-18.52-18.41c-4.61-8.01-6.92-17.49-6.92-28.42v-0.43c0-10.93,2.34-20.4,7.02-28.41
		c4.68-8.01,10.89-14.15,18.62-18.41c7.73-4.26,16.07-6.38,25.01-6.38c8.23,0,15.18,1.49,20.86,4.47
		c5.67,2.98,10.99,7.17,15.96,12.56v-14.9h32.35v88.33C484.81,153.33,479.6,168.65,469.17,178.16z M444.9,75.99
		c-5.32-4.97-11.96-7.45-19.9-7.45c-7.95,0-14.55,2.48-19.79,7.45c-5.25,4.97-7.88,11.28-7.88,18.94v0.43
		c0,7.81,2.62,14.15,7.88,19.05c5.25,4.9,11.85,7.34,19.79,7.34c7.95,0,14.58-2.48,19.9-7.45c5.32-4.96,7.98-11.28,7.98-18.94v-0.43
		C452.88,87.27,450.22,80.96,444.9,75.99z"/>
</g>
<g>
</g>
<g>
</g>
<g>
</g>
<g>
</g>
<g>
</g>
<g>
</g>
</svg>
