<?xml version="1.0" encoding="utf-8"?>
<!-- Generator: Adobe Illustrator 25.0.0, SVG Export Plug-In . SVG Version: 6.00 Build 0)  -->
<svg version="1.1" id="Capa_1" xmlns="http://www.w3.org/2000/svg" xmlns:xlink="http://www.w3.org/1999/xlink" x="0px" y="0px"
	 viewBox="0 0 566.93 566.93" style="enable-background:new 0 0 566.93 566.93;" xml:space="preserve">
<style type="text/css">
	.st0{fill:#EE7328;}
</style>
<g>
	<path class="st0" d="M15.63,385.14c0-68.17,0-136.34,0-204.51c0.66-8.76,1.53-17.52,1.93-26.29C21.63,66.28,79.71,3.38,162.88,1.35
		c80.63-1.97,161.35-1.29,242.01-0.01c34.56,0.55,66.68,12.33,93.71,36.64c34.26,30.82,49.58,71.57,50.95,117.66
		c1.97,66.2,1.93,132.47,1.99,198.72c0.02,23.92-1.02,47.98-3.49,71.75c-7.45,71.73-52.4,122.36-119.31,135.21
		c-14.23,2.73-28.75,3.78-43.14,5.61c-67.92,0-135.83,0-203.75,0c-11.15-1.26-22.31-2.4-33.44-3.8
		c-65.63-8.3-112.77-52.83-126.44-120.93C18.22,423.54,17.66,404.18,15.63,385.14z M283.95,48.97
		c-41.67,1.51-83.69,1.89-125.54,4.87c-46.85,3.33-78.1,32.15-88.29,79.34c-2.83,13.12-4.17,26.83-4.4,40.31
		c-0.91,53.31-1.54,106.64-1.41,159.96c0.07,27.73,1.03,55.54,3.19,83.17c3.83,48.93,30.74,81.95,74.9,92.61
		c12.1,2.92,24.74,4.37,37.16,4.61c50.92,0.97,101.85,1.65,152.77,1.52c25.88-0.06,51.83-1.08,77.61-3.39
		c48.53-4.34,81.21-35.38,88.26-85.89c3.9-27.94,4.75-56.56,4.7-84.87c-0.12-63.39-0.12-126.86-3.08-190.15
		c-2.65-56.7-37.97-93.31-91.47-97.28C367.1,50.73,325.66,50.48,283.95,48.97z"/>
	<path class="st0" d="M421.51,283.18c-0.05,81.04-61.36,145.74-138.06,145.68c-76.49-0.05-137.55-65.01-137.5-146.27
		c0.05-81.04,61.36-145.74,138.06-145.68C360.49,136.97,421.56,201.93,421.51,283.18z M283.96,377.4
		c48.94-0.16,89.25-43.21,88.97-95c-0.28-51.49-40.4-93.89-88.99-94.03c-48.89-0.14-89.46,42.75-89.42,94.53
		C194.55,334.78,235.06,377.57,283.96,377.4z"/>
	<path class="st0" d="M459.15,131.36c-0.03,19.11-14.17,34.14-32.19,34.2c-18.01,0.06-32.36-14.91-32.49-33.91
		c-0.14-19.55,14.21-34.76,32.67-34.63C445.18,97.16,459.18,112.17,459.15,131.36z"/>
</g>
<g>
</g>
<g>
</g>
<g>
</g>
<g>
</g>
<g>
</g>
<g>
</g>
</svg>
