<?xml version="1.0" encoding="utf-8"?>
<!-- Generator: Adobe Illustrator 25.0.0, SVG Export Plug-In . SVG Version: 6.00 Build 0)  -->
<svg version="1.1" xmlns="http://www.w3.org/2000/svg" xmlns:xlink="http://www.w3.org/1999/xlink" x="0px" y="0px"
	 viewBox="0 0 566.93 566.93" style="enable-background:new 0 0 566.93 566.93;" xml:space="preserve">
<style type="text/css">
	.st0{display:none;}
	.st1{display:inline;}
	.st2{fill:#EE7328;}
	.st3{fill:#FFFFFF;}
</style>
<g id="Capa_1" class="st0">
	<g class="st1">
		<path class="st2" d="M15.63,385.14c0-68.17,0-136.34,0-204.51c0.66-8.76,1.53-17.52,1.93-26.29
			C21.63,66.28,79.71,3.38,162.88,1.35c80.63-1.97,161.35-1.29,242.01-0.01c34.56,0.55,66.68,12.33,93.71,36.64
			c34.26,30.82,49.58,71.57,50.95,117.66c1.97,66.2,1.93,132.47,1.99,198.72c0.02,23.92-1.02,47.98-3.49,71.75
			c-7.45,71.73-52.4,122.36-119.31,135.21c-14.23,2.73-28.75,3.78-43.14,5.61c-67.92,0-135.83,0-203.75,0
			c-11.15-1.26-22.31-2.4-33.44-3.8c-65.63-8.3-112.77-52.83-126.44-120.93C18.22,423.54,17.66,404.18,15.63,385.14z M283.95,48.97
			c-41.67,1.51-83.69,1.89-125.54,4.87c-46.85,3.33-78.1,32.15-88.29,79.34c-2.83,13.12-4.17,26.83-4.4,40.31
			c-0.91,53.31-1.54,106.64-1.41,159.96c0.07,27.73,1.03,55.54,3.19,83.17c3.83,48.93,30.74,81.95,74.9,92.61
			c12.1,2.92,24.74,4.37,37.16,4.61c50.92,0.97,101.85,1.65,152.77,1.52c25.88-0.06,51.83-1.08,77.61-3.39
			c48.53-4.34,81.21-35.38,88.26-85.89c3.9-27.94,4.75-56.56,4.7-84.87c-0.12-63.39-0.12-126.86-3.08-190.15
			c-2.65-56.7-37.97-93.31-91.47-97.28C367.1,50.73,325.66,50.48,283.95,48.97z"/>
		<path class="st2" d="M421.51,283.18c-0.05,81.04-61.36,145.74-138.06,145.68c-76.49-0.05-137.55-65.01-137.5-146.27
			c0.05-81.04,61.36-145.74,138.06-145.68C360.49,136.97,421.56,201.93,421.51,283.18z M283.96,377.4
			c48.94-0.16,89.25-43.21,88.97-95c-0.28-51.49-40.4-93.89-88.99-94.03c-48.89-0.14-89.46,42.75-89.42,94.53
			C194.55,334.78,235.06,377.57,283.96,377.4z"/>
		<path class="st2" d="M459.15,131.36c-0.03,19.11-14.17,34.14-32.19,34.2c-18.01,0.06-32.36-14.91-32.49-33.91
			c-0.14-19.55,14.21-34.76,32.67-34.63C445.18,97.16,459.18,112.17,459.15,131.36z"/>
	</g>
</g>
<g id="Capa_2" class="st0">
	<g class="st1">
		<path class="st2" d="M566.93,85.26c0,132.14,0,264.27,0,396.41c-0.33,0.84-0.82,1.65-0.97,2.52
			c-5.75,33.67-24.45,57.94-54.62,73.06c-9.2,4.61-19.74,6.53-29.67,9.68c-36.54,0-73.08,0-109.62,0c-0.09-0.91-0.27-1.83-0.27-2.74
			c-0.01-69-0.02-138,0-207c0-1.39,0.32-2.77,0.54-4.56c31.38,0,62.32,0,93.39,0c0-31.67,0-62.88,0-94.71c-31.5,0-62.57,0-93.69,0
			c0-14.25-0.5-27.91,0.14-41.51c0.64-13.57,9.57-21.24,23.17-21.24c21.59,0,43.17,0.01,64.76-0.01c1.93,0,3.87-0.17,5.65-0.25
			c0-31.73,0-62.8,0-93.8c-27.71,0-55-0.19-82.28,0.15c-6.17,0.08-12.55,1.32-18.45,3.21c-41.62,13.4-65.24,43.53-77.14,84.21
			c-4.72,16.15-4.6,32.78-4.41,49.4c0.08,6.58,0.01,13.15,0.01,20.18c-23.33,0-45.95,0-68.78,0c-0.22,1.67-0.52,2.92-0.52,4.16
			c-0.03,28.6,0.04,57.19-0.09,85.79c-0.02,3.73,1.31,4.68,4.83,4.64c16.42-0.14,32.84-0.06,49.26-0.06c4.93,0,9.85,0,15.31,0
			c0,71.8,0,142.97,0,214.14c-66.07,0-132.14,0-198.2,0c-0.84-0.33-1.65-0.82-2.52-0.96c-33.46-5.69-57.66-24.21-72.79-54.14
			c-4.72-9.34-6.71-20.07-9.95-30.16C0,349.53,0,217.4,0,85.26c0.33-0.84,0.82-1.65,0.97-2.52C6.72,49.07,25.41,24.8,55.59,9.68
			C64.79,5.07,75.33,3.15,85.26,0C217.4,0,349.53,0,481.67,0c0.84,0.33,1.65,0.81,2.52,0.96c33.45,5.7,57.66,24.21,72.79,54.14
			C561.7,64.45,563.69,75.17,566.93,85.26z"/>
	</g>
</g>
<g id="Capa_3" class="st0">
	<g class="st1">
		<path class="st3" d="M283.53,470.41c-0.7-0.97-1.17-1.56-1.58-2.19c-36.24-56.73-70.75-114.47-101.6-174.35
			c-14.36-27.87-27.87-56.15-38.27-85.79c-4.49-12.8-8.71-25.74-9.75-39.33c-1.62-21.33,0.97-42.33,6.81-62.87
			c9.69-34.09,28.53-61.79,58.46-81.26C226.23,5.99,257.96-1.36,291.85,0.2c25.49,1.18,49.52,7.77,71.58,20.76
			c33.01,19.43,53.78,48.27,64.32,84.77c5.49,19,7.72,38.47,7.23,58.2c-0.29,11.81-3.4,23.16-6.92,34.36
			c-8.52,27.08-20.25,52.83-32.78,78.23c-24.76,50.19-52.71,98.6-81.92,146.31c-9.16,14.96-18.58,29.75-27.89,44.61
			C284.93,468.32,284.34,469.17,283.53,470.41z M283.55,207.65c29.02-0.08,52.53-23.69,52.44-52.68
			c-0.09-29.02-23.64-52.38-52.75-52.33c-28.86,0.05-52.34,23.62-52.31,52.51C230.96,184.16,254.58,207.72,283.55,207.65z"/>
		<path class="st2" d="M215.69,383.02c-7.05,1.04-14.1,1.94-21.1,3.13c-21.64,3.69-42.84,8.92-62.77,18.43
			c-9.46,4.52-18.31,9.97-25.5,17.76c-11.48,12.44-12.53,26.96-2.85,40.87c6.96,10,16.57,16.97,26.98,22.91
			c17.88,10.2,37.22,16.62,57.15,21.3c43.33,10.19,87.23,12.37,131.5,9.14c23.61-1.72,46.93-5.29,69.78-11.58
			c20.01-5.51,39.34-12.66,56.59-24.55c7.2-4.96,13.7-10.69,18.55-18.07c8.98-13.65,7.86-27.81-3.21-39.82
			c-8.78-9.54-19.87-15.62-31.6-20.65c-19.2-8.24-39.38-12.96-59.92-16.26c-5.99-0.96-12-1.72-17.79-2.55
			c2.71-2.92,5.41-5.9,8.19-8.78c0.33-0.34,1.14-0.34,1.71-0.28c34.25,3.58,67.95,9.45,99.54,24c10.14,4.67,19.6,10.47,27.99,17.91
			c24.56,21.78,28.2,53.61,9.15,80.35c-9.72,13.65-22.66,23.63-36.97,31.96c-20.58,11.98-42.77,19.91-65.78,25.65
			c-46.57,11.63-93.89,14.8-141.69,12.14c-32.89-1.83-65.28-6.68-96.86-16.25c-23.73-7.19-46.39-16.72-66.37-31.77
			c-10.87-8.18-20.23-17.77-26.61-29.94c-12.99-24.79-7.88-52.1,13.21-71.27c12.69-11.54,27.7-19.04,43.6-24.92
			c22.68-8.39,46.24-13.05,70.14-16.2c4.65-0.61,9.31-1.19,13.98-1.54c1.19-0.09,2.74,0.44,3.61,1.24
			C210.89,377.74,213.17,380.37,215.69,383.02z"/>
	</g>
</g>
<g id="Capa_4">
	<g>
		<path class="st2" d="M566.93,237.01c0,30.64,0,61.28,0,91.92c-0.32,3.28-0.85,6.55-0.91,9.83c-0.49,24.95-2.96,49.69-8.05,74.14
			c-5.92,28.41-21.71,48.97-49.89,57.35c-13.08,3.89-27.22,5-40.97,5.68c-42.38,2.09-84.78,4.39-127.19,4.74
			c-87.44,0.73-174.92,1.78-262.18-6.56c-35.08-3.35-61.51-24.48-68.19-59c-4.19-21.65-7.08-43.75-8.17-65.76
			c-1.59-32.04-1.49-64.19-1.25-96.29c0.24-33.02,2.03-65.96,8.63-98.5c7.13-35.14,32.1-58.58,67.45-61.27
			c34.21-2.61,68.46-5.79,102.72-6.25c103.67-1.38,207.39-3.69,310.88,5.98c32.71,3.06,57.39,21.33,65.88,53.17
			c4.81,18.04,6.53,36.96,8.9,55.57C566.08,213.43,566.2,225.26,566.93,237.01z M210.46,371.43
			c60.25-31.25,119.64-62.06,180.02-93.38c-60.58-31.6-120.04-62.61-180.02-93.9C210.46,247,210.46,308.76,210.46,371.43z"/>
	</g>
	<g>
	</g>
	<g>
	</g>
	<g>
	</g>
	<g>
	</g>
	<g>
	</g>
	<g>
	</g>
</g>
</svg>
