<?xml version="1.0" encoding="utf-8"?>
<!-- Generator: Adobe Illustrator 25.0.0, SVG Export Plug-In . SVG Version: 6.00 Build 0)  -->
<svg version="1.1" xmlns="http://www.w3.org/2000/svg" xmlns:xlink="http://www.w3.org/1999/xlink" x="0px" y="0px"
	 viewBox="0 0 566.93 566.93" style="enable-background:new 0 0 566.93 566.93;" xml:space="preserve">
<style type="text/css">
	.st0{display:none;}
	.st1{display:inline;}
	.st2{fill:#EE7328;}
	.st3{fill:#FFFFFF;}
	.st4{fill:none;}
	.st5{display:inline;fill:#EE7328;}
</style>
<g id="Capa_1" class="st0">
	<g class="st1">
		<path class="st2" d="M15.63,385.14c0-68.17,0-136.34,0-204.51c0.66-8.76,1.53-17.52,1.93-26.29
			C21.63,66.28,79.71,3.38,162.88,1.35c80.63-1.97,161.35-1.29,242.01-0.01c34.56,0.55,66.68,12.33,93.71,36.64
			c34.26,30.82,49.58,71.57,50.95,117.66c1.97,66.2,1.93,132.47,1.99,198.72c0.02,23.92-1.02,47.98-3.49,71.75
			c-7.45,71.73-52.4,122.36-119.31,135.21c-14.23,2.73-28.75,3.78-43.14,5.61c-67.92,0-135.83,0-203.75,0
			c-11.15-1.26-22.31-2.4-33.44-3.8c-65.63-8.3-112.77-52.83-126.44-120.93C18.22,423.54,17.66,404.18,15.63,385.14z M283.95,48.97
			c-41.67,1.51-83.69,1.89-125.54,4.87c-46.85,3.33-78.1,32.15-88.29,79.34c-2.83,13.12-4.17,26.83-4.4,40.31
			c-0.91,53.31-1.54,106.64-1.41,159.96c0.07,27.73,1.03,55.54,3.19,83.17c3.83,48.93,30.74,81.95,74.9,92.61
			c12.1,2.92,24.74,4.37,37.16,4.61c50.92,0.97,101.85,1.65,152.77,1.52c25.88-0.06,51.83-1.08,77.61-3.39
			c48.53-4.34,81.21-35.38,88.26-85.89c3.9-27.94,4.75-56.56,4.7-84.87c-0.12-63.39-0.12-126.86-3.08-190.15
			c-2.65-56.7-37.97-93.31-91.47-97.28C367.1,50.73,325.66,50.48,283.95,48.97z"/>
		<path class="st2" d="M421.51,283.18c-0.05,81.04-61.36,145.74-138.06,145.68c-76.49-0.05-137.55-65.01-137.5-146.27
			c0.05-81.04,61.36-145.74,138.06-145.68C360.49,136.97,421.56,201.93,421.51,283.18z M283.96,377.4
			c48.94-0.16,89.25-43.21,88.97-95c-0.28-51.49-40.4-93.89-88.99-94.03c-48.89-0.14-89.46,42.75-89.42,94.53
			C194.55,334.78,235.06,377.57,283.96,377.4z"/>
		<path class="st2" d="M459.15,131.36c-0.03,19.11-14.17,34.14-32.19,34.2c-18.01,0.06-32.36-14.91-32.49-33.91
			c-0.14-19.55,14.21-34.76,32.67-34.63C445.18,97.16,459.18,112.17,459.15,131.36z"/>
	</g>
</g>
<g id="Capa_2" class="st0">
	<g class="st1">
		<path class="st2" d="M566.93,85.26c0,132.14,0,264.27,0,396.41c-0.33,0.84-0.82,1.65-0.97,2.52
			c-5.75,33.67-24.45,57.94-54.62,73.06c-9.2,4.61-19.74,6.53-29.67,9.68c-36.54,0-73.08,0-109.62,0c-0.09-0.91-0.27-1.83-0.27-2.74
			c-0.01-69-0.02-138,0-207c0-1.39,0.32-2.77,0.54-4.56c31.38,0,62.32,0,93.39,0c0-31.67,0-62.88,0-94.71c-31.5,0-62.57,0-93.69,0
			c0-14.25-0.5-27.91,0.14-41.51c0.64-13.57,9.57-21.24,23.17-21.24c21.59,0,43.17,0.01,64.76-0.01c1.93,0,3.87-0.17,5.65-0.25
			c0-31.73,0-62.8,0-93.8c-27.71,0-55-0.19-82.28,0.15c-6.17,0.08-12.55,1.32-18.45,3.21c-41.62,13.4-65.24,43.53-77.14,84.21
			c-4.72,16.15-4.6,32.78-4.41,49.4c0.08,6.58,0.01,13.15,0.01,20.18c-23.33,0-45.95,0-68.78,0c-0.22,1.67-0.52,2.92-0.52,4.16
			c-0.03,28.6,0.04,57.19-0.09,85.79c-0.02,3.73,1.31,4.68,4.83,4.64c16.42-0.14,32.84-0.06,49.26-0.06c4.93,0,9.85,0,15.31,0
			c0,71.8,0,142.97,0,214.14c-66.07,0-132.14,0-198.2,0c-0.84-0.33-1.65-0.82-2.52-0.96c-33.46-5.69-57.66-24.21-72.79-54.14
			c-4.72-9.34-6.71-20.07-9.95-30.16C0,349.53,0,217.4,0,85.26c0.33-0.84,0.82-1.65,0.97-2.52C6.72,49.07,25.41,24.8,55.59,9.68
			C64.79,5.07,75.33,3.15,85.26,0C217.4,0,349.53,0,481.67,0c0.84,0.33,1.65,0.81,2.52,0.96c33.45,5.7,57.66,24.21,72.79,54.14
			C561.7,64.45,563.69,75.17,566.93,85.26z"/>
	</g>
</g>
<g id="Capa_3" class="st0">
	<g class="st1">
		<path class="st3" d="M283.53,470.41c-0.7-0.97-1.17-1.56-1.58-2.19c-36.24-56.73-70.75-114.47-101.6-174.35
			c-14.36-27.87-27.87-56.15-38.27-85.79c-4.49-12.8-8.71-25.74-9.75-39.33c-1.62-21.33,0.97-42.33,6.81-62.87
			c9.69-34.09,28.53-61.79,58.46-81.26C226.23,5.99,257.96-1.36,291.85,0.2c25.49,1.18,49.52,7.77,71.58,20.76
			c33.01,19.43,53.78,48.27,64.32,84.77c5.49,19,7.72,38.47,7.23,58.2c-0.29,11.81-3.4,23.16-6.92,34.36
			c-8.52,27.08-20.25,52.83-32.78,78.23c-24.76,50.19-52.71,98.6-81.92,146.31c-9.16,14.96-18.58,29.75-27.89,44.61
			C284.93,468.32,284.34,469.17,283.53,470.41z M283.55,207.65c29.02-0.08,52.53-23.69,52.44-52.68
			c-0.09-29.02-23.64-52.38-52.75-52.33c-28.86,0.05-52.34,23.62-52.31,52.51C230.96,184.16,254.58,207.72,283.55,207.65z"/>
		<path class="st2" d="M215.69,383.02c-7.05,1.04-14.1,1.94-21.1,3.13c-21.64,3.69-42.84,8.92-62.77,18.43
			c-9.46,4.52-18.31,9.97-25.5,17.76c-11.48,12.44-12.53,26.96-2.85,40.87c6.96,10,16.57,16.97,26.98,22.91
			c17.88,10.2,37.22,16.62,57.15,21.3c43.33,10.19,87.23,12.37,131.5,9.14c23.61-1.72,46.93-5.29,69.78-11.58
			c20.01-5.51,39.34-12.66,56.59-24.55c7.2-4.96,13.7-10.69,18.55-18.07c8.98-13.65,7.86-27.81-3.21-39.82
			c-8.78-9.54-19.87-15.62-31.6-20.65c-19.2-8.24-39.38-12.96-59.92-16.26c-5.99-0.96-12-1.72-17.79-2.55
			c2.71-2.92,5.41-5.9,8.19-8.78c0.33-0.34,1.14-0.34,1.71-0.28c34.25,3.58,67.95,9.45,99.54,24c10.14,4.67,19.6,10.47,27.99,17.91
			c24.56,21.78,28.2,53.61,9.15,80.35c-9.72,13.65-22.66,23.63-36.97,31.96c-20.58,11.98-42.77,19.91-65.78,25.65
			c-46.57,11.63-93.89,14.8-141.69,12.14c-32.89-1.83-65.28-6.68-96.86-16.25c-23.73-7.19-46.39-16.72-66.37-31.77
			c-10.87-8.18-20.23-17.77-26.61-29.94c-12.99-24.79-7.88-52.1,13.21-71.27c12.69-11.54,27.7-19.04,43.6-24.92
			c22.68-8.39,46.24-13.05,70.14-16.2c4.65-0.61,9.31-1.19,13.98-1.54c1.19-0.09,2.74,0.44,3.61,1.24
			C210.89,377.74,213.17,380.37,215.69,383.02z"/>
	</g>
</g>
<g id="Capa_4">
	<g>
		<path class="st2" d="M566.93,96.56c0-0.22-0.01-0.44-0.01-0.66v375.13c0-0.22,0.01-0.44,0.01-0.66V96.56z"/>
		<path class="st2" d="M470.37,0H96.56C43.23,0,0,43.23,0,96.56v373.8c0,53.33,43.23,96.56,96.56,96.56h373.8
			c53.11,0,96.2-42.88,96.55-95.9V95.9C566.56,42.88,523.48,0,470.37,0z M544.44,328.29c-0.45,20.23-2.73,40.28-7.44,60.09
			c-5.47,23.03-20.05,39.69-46.08,46.49c-12.08,3.15-25.14,4.05-37.84,4.6c-39.14,1.69-78.31,3.56-117.48,3.84
			c-80.77,0.59-161.56,1.44-242.15-5.31c-32.4-2.72-56.81-19.84-62.98-47.82c-3.87-17.55-6.54-35.46-7.55-53.3
			c-1.47-25.97-1.37-52.03-1.15-78.05c0.23-26.77,1.88-53.46,7.98-79.84c6.59-28.48,29.65-47.48,62.3-49.67
			c31.59-2.11,63.23-4.7,94.87-5.07c95.76-1.12,191.56-2.99,287.14,4.85c30.21,2.48,53,17.29,60.85,43.1
			c4.44,14.62,6.03,29.96,8.22,45.05c1.37,9.45,1.48,19.04,2.16,28.56c0,24.84,0,49.67,0,74.51
			C544.99,322.98,544.5,325.63,544.44,328.29z"/>
		<path class="st2" d="M216.03,354.77c55.65-25.33,110.5-50.3,166.28-75.69c-55.96-25.62-110.87-50.75-166.28-76.11
			C216.03,253.91,216.03,303.97,216.03,354.77z"/>
	</g>
</g>
<g id="Capa_5" class="st0">
	<g class="st1">
		<path class="st2" d="M282.55,429.91c9.42-6,19.8-11.36,28.38-17.9c39.71-30.25,65.21-66.42,86.08-104.43
			c0.46-0.83,0.49-1.78,0.84-3.18c-8.42,0.33-16.23,0.63-24.9,0.97c3.56-34.27,7.04-67.8,10.51-101.34
			c-1.06-0.35-2.12-0.7-3.18-1.05c-15.85,11.23-31.69,22.46-48.21,34.16C313.81,157.86,295.63,78.93,277.45,0
			c-0.43,0.01-0.86,0.02-1.3,0.03c-18.2,78.98-36.4,157.96-54.95,238.45c-18.47-12.52-35.03-23.74-51.11-34.64
			c3.45,33.25,6.97,67.14,10.56,101.63c-9.11-0.4-16.96-0.74-25.35-1.11c0.57,1.56,0.82,2.7,1.41,3.76
			c16.05,28.93,35.12,56.75,60.74,82.16c15.14,15.02,32.16,28.77,53.5,39.67C275.21,432.12,278.53,432.47,282.55,429.91z
			 M217.49,342.06c0-13.98,5.85-26.74,15.47-36.41c-1.07,13.38-0.92,26.88,1.48,40.34c1.37,7.06,3.35,14.12,6.63,20.95l1.25,2.55
			l1.5,2.5c0.52,0.83,0.99,1.66,1.55,2.47l1.85,2.39c1.14,1.6,2.68,3.08,4.14,4.54c0.69,0.74,1.57,1.41,2.46,2.05
			c0.86,0.66,1.73,1.29,2.61,1.91c-1.55-2.07-2.79-4.18-3.83-6.33c-2.93-3.93-4.98-8.24-6.6-12.51c-2.46-6.88-3.82-13.91-4.53-20.95
			c-0.74-7.04-0.67-14.08-0.48-21.1c0.31-7.02,1.12-14.02,1.99-21c1.06-6.97,2.33-13.91,3.82-20.83c1.62-6.9,3.25-13.8,5.33-20.64
			c0.39-1.35,0.8-2.7,1.22-4.05c3.75-12.31,8.2-24.52,13.84-36.48l-8.32,41.35c-1.26,6.89-2.73,13.74-3.85,20.63
			c-0.51,2.9-1.01,5.8-1.5,8.71c7.64-3.08,16.1-4.81,25.02-4.81c7.48,0,14.65,1.21,21.28,3.43c0-2.17,0.01-4.34,0.01-6.51
			c0.07-6.93-0.21-13.86-0.28-20.81l-1.15-41.76c3.55,12.36,5.87,24.86,7.48,37.4c0.18,1.37,0.35,2.75,0.51,4.13
			c0.88,6.96,1.32,13.95,1.74,20.94c0.28,6.99,0.35,13.99,0.21,21c-0.33,7-0.73,14.02-1.63,21.01c-1.01,6.99-2.16,13.99-4.1,20.91
			c-1.92,6.92-4.47,13.79-8.09,20.41c-2.34,4.11-5.11,8.21-8.7,11.86c-0.3,0.44-0.59,0.87-0.91,1.3l-8.3,7.44
			c25.58,0,46.32-18.6,46.32-41.55l-22.73,20.39c3.95-6.08,6.9-12.42,9.29-18.82c4.93-13.83,7.42-27.92,8.59-41.97
			c0.15-1.82,0.27-3.63,0.37-5.45c12.93,10.04,21.12,24.85,21.12,41.4c0,30.23-27.32,54.74-61.02,54.74S217.49,372.3,217.49,342.06z
			"/>
		<g>
			<path class="st3" d="M229.64,420.88c-5.6,0.82-11.2,1.54-16.76,2.49c-17.18,2.93-34.02,7.08-49.85,14.64
				c-7.51,3.59-14.54,7.91-20.25,14.1c-9.11,9.88-9.95,21.41-2.27,32.46c5.52,7.94,13.16,13.48,21.43,18.2
				c14.2,8.1,29.56,13.2,45.38,16.92c34.41,8.09,69.27,9.83,104.43,7.26c18.75-1.37,37.27-4.2,55.41-9.2
				c15.89-4.38,31.24-10.05,44.94-19.49c5.72-3.94,10.88-8.49,14.73-14.35c7.13-10.84,6.24-22.08-2.55-31.62
				c-6.98-7.57-15.78-12.41-25.09-16.4c-15.25-6.54-31.27-10.29-47.58-12.91c-4.75-0.76-9.53-1.37-14.13-2.02
				c2.15-2.32,4.29-4.68,6.51-6.98c0.26-0.27,0.91-0.27,1.36-0.23c27.2,2.84,53.96,7.5,79.05,19.06
				c8.06,3.71,15.56,8.31,22.23,14.22c19.5,17.3,22.39,42.57,7.27,63.81c-7.72,10.84-17.99,18.76-29.36,25.38
				c-16.34,9.51-33.97,15.81-52.24,20.37c-36.98,9.24-74.56,11.75-112.52,9.64c-26.12-1.45-51.84-5.31-76.92-12.91
				c-18.85-5.71-36.84-13.28-52.71-25.23c-8.63-6.5-16.07-14.11-21.13-23.77c-10.32-19.69-6.26-41.38,10.49-56.6
				c10.08-9.16,21.99-15.12,34.62-19.79c18.01-6.66,36.72-10.37,55.7-12.86c3.69-0.49,7.39-0.94,11.1-1.22
				c0.94-0.07,2.18,0.35,2.87,0.99C225.83,416.69,227.64,418.77,229.64,420.88z"/>
		</g>
	</g>
</g>
<g id="Capa_6" class="st0">
	<g class="st1">
		<path class="st4" d="M456.36,360.71c0.92,1.28,1.88,2.56,2.86,3.89c0.69,0.93,1.4,1.89,2.1,2.85c1.08-1.28,2.43-2.54,4.12-3.7
			C462.38,363.15,459.34,362.15,456.36,360.71z"/>
		<path class="st4" d="M386.26,393.85c-0.09-1.39-0.35-2.97-0.73-4.91c-0.27-1.38-0.71-1.96-0.81-2.04
			c-0.06-0.03-0.34-0.08-0.83-0.04c0.22,4.26,0.88,8.69,1.56,13.36c0.19,1.26,0.37,2.53,0.55,3.79c0.34,2.4,0.75,4.81,1.19,7.33
			c-0.13-2.29-0.24-4.57-0.35-6.82C386.67,400.95,386.49,397.4,386.26,393.85z"/>
		<path class="st2" d="M565.73,262.07c-3.11-13.53-12.73-23.08-27.09-26.9c-13.55-3.61-26.51-1.52-35.09,0.37
			c-17.25,3.8-32.27,11.91-44.7,19.35l-1.24,0.74c-2.29,1.37-4.54,2.72-6.77,4.03c0.39-0.33,0.78-0.66,1.18-1
			c2.3-1.94,4.68-3.94,7.02-6.2c3.85-3.7,6.7-7.33,8.71-11.08c1.91-3.57,2.58-7.46,2.18-11.28c0.76,0.07,1.52,0.12,2.27,0.12
			c4.28,0,8.49-1.17,12.34-3.5c4.73-2.87,9.69-6.04,13.87-10.52c7.57-8.11,11.13-17.74,10.02-27.12
			c-1.12-9.53-6.98-18.25-16.5-24.56c-11.2-7.42-23.44-7.75-34.47-0.93c-13.74,8.5-20.6,26.25-15.98,41.35
			c0.54,1.85,1.21,3.6,2,5.28c-4.91,1.4-9.02,4.83-11.77,8.6c-1.53,2.09-2.81,4.22-3.95,6.15c-0.01-2.4,0.03-4.86,0.07-7.39
			c0.03-2.02,0.07-4.04,0.07-6.06c0.01-3.32,0.08-6.64,0.14-9.97c0.15-7.73,0.31-15.72-0.18-23.79
			c-1.13-18.91-10.69-28.64-18.51-33.48c-12.5-7.73-25.48-5.39-33.89,6.13c-3.63,4.97-6.24,9.68-7.96,14.31
			c0.12-7.28-1.53-14.11-3.42-21c-0.19-0.68-0.43-1.34-0.73-1.97c-0.32-0.69-0.65-1.4-0.98-2.11c-0.9-1.94-1.83-3.94-2.87-6.01
			c-0.95-1.87-2.18-3.73-3.67-5.5c-6.31-7.54-13.02-7.69-16.46-7.11c-3.42,0.57-9.68,2.89-13.13,11.93
			c-1.81,4.75-3.03,9.81-3.51,14.64c-1.03,10.34-1.6,22.34,4.69,34c3.58,6.62,9.91,10.79,16.94,11.14c0.32,0.02,0.65,0.03,0.97,0.03
			c6.63,0,12.89-3.43,16.91-9.31c-1.04,4.06-2.05,8.11-3.04,12.09c-1.2,4.85-2.41,9.7-3.66,14.53l-0.09,0.35
			c-0.96,3.7-1.87,7.23-3.03,10.45c-4.98,0.96-8.94-0.38-12.66-4.24c-1.99-2.07-4.79-5.15-6.08-7.96
			c-3.62-7.9-6.99-16.23-10.25-24.29c-0.67-1.66-1.35-3.33-2.02-4.99c0.09-1.44-0.08-2.91-0.53-4.36c-0.67-2.16-1.3-4.34-1.93-6.52
			c-1.51-5.18-3.07-10.55-5.14-15.9c-5.72-14.75-14.21-24.84-25.98-30.82c-9.49-4.83-20.05-5.1-28.98-0.74
			c-8.97,4.38-15.3,12.92-17.35,23.44c-2.06,10.59-0.56,20.73,4.35,29.32c5.14,8.99,10.85,17.97,17.46,27.45
			c2.02,2.9,4.12,5.73,6.14,8.46c0.64,0.86,1.27,1.72,1.9,2.57c-3.24-1.33-6.41-2.59-9.47-3.77c-1.87-0.72-3.49-0.95-4.46-1.08
			l-0.07-0.01c-0.13-0.02-0.27-0.04-0.44-0.07c-4.01-0.72-8.07,0.41-11.13,3.12c-2.25,1.99-3.7,4.61-4.24,7.48
			c-6.1-1.06-12.44-0.83-18.91,0.68l-46.7-3.41c-5.45-0.39-10.67,2.66-12.98,7.61l-0.83,1.77c-2.36,5.05-1.29,11.08,2.66,15.01
			l8.67,8.62l-162.4,26.36c-6.58,1.07-11.36,6.89-11.13,13.55l0.02,0.72c0.22,6.31,4.89,11.62,11.12,12.63l164.12,26.65l-9.94,10.34
			c-3.78,3.93-4.76,9.89-2.45,14.83c2.32,4.94,7.53,7.99,12.97,7.59l65.48-4.79c0.05,3.88,1.81,7.59,4.82,10.07
			c2.37,1.95,5.36,3.03,8.43,3.03c0.1,0,0.19-0.02,0.28-0.02c-2.93,3.92-5.76,8.03-8.23,12.48c-4.69,8.44-5.13,19.08-1.23,29.17
			c4.1,10.6,12.37,18.88,22.11,22.17c6.95,2.34,14.14,2.15,21.39-0.58c11.48-4.32,19.32-13.04,23.29-25.93
			c1.01-3.29,1.95-6.58,2.85-9.77c1.4-4.94,2.72-9.6,4.29-14.14c1.66-4.81,3.46-8.8,5.5-12.18c0.07,0.03,0.14,0.05,0.21,0.08
			c5.72,2.3,6.22,5.27,5.18,9.3c-1.11,4.3-2.98,8.72-4.97,13.41c-0.78,1.83-1.55,3.66-2.29,5.5c-0.95,2.37-2,4.74-3.1,7.24
			c-2.2,4.98-4.47,10.14-6.19,15.74c-3.94,12.8,0.45,25.65,11.76,34.39c6.55,5.06,13.86,7.59,21.87,7.59
			c6.49,0,13.43-1.66,20.8-4.98c12.45-5.62,19.65-15.13,20.92-27.34c1.3,6.23,4.57,14.91,13.44,20.68
			c17.09,11.12,35.39,12.47,52.93,3.91c10.04-4.9,17.41-14.96,18.8-25.62c1.32-10.2-2.68-19.89-11.27-27.31
			c-1.04-0.89-2.08-1.77-3.14-2.62c1.46-0.94,2.84-2.07,4.11-3.4c0.22-0.23,0.45-0.48,0.68-0.75c7.3,8.72,16.72,15.02,28.07,18.73
			c2.93,0.96,6.23,1.44,9.83,1.44c0.37,0,0.75,0,1.13-0.02c8.45-0.23,15.43-5.53,17.77-13.49c2.8-9.53,2.19-18.26-1.81-25.93
			c-5.26-10.07-16.07-16.75-28.03-18.42c6.26-4.14,8.21-9.23,8.66-13.03c0.52-4.43-0.49-11.04-8.3-17.34
			c-4.14-3.34-8.66-6.03-12.93-8.44c-3.29-1.86-6.61-3.61-9.83-5.31c-3.87-2.04-7.55-3.99-11.11-6.06
			c4.73-4.02,9.38-7.07,13.87-9.08c16.48-7.41,30.02-6.51,42.61,2.83c3.04,2.26,6.66,4.07,10.74,5.38c10.33,3.32,20.73,1.13,28.53-6
			C565,291.32,569.23,277.3,565.73,262.07z M354.83,169.42c-0.43,2.45-1.24,5.05-2.62,7.08c-3.83,5.65-10.73,5.26-13.96-0.73
			c-4.6-8.51-4.2-17.78-3.28-26.97c0.39-3.89,1.37-7.83,2.76-11.49c2-5.25,5.18-5.59,8.75-1.32c0.81,0.97,1.56,2.04,2.13,3.17
			c1.32,2.62,2.52,5.3,3.69,7.8C354.36,154.45,356.19,161.8,354.83,169.42z M463.91,174.01c7.18-4.44,14.3-3.89,21.26,0.72
			c13.11,8.69,14.97,21.66,4.29,33.11c-3.15,3.38-7.27,5.98-11.27,8.41c-4.1,2.49-8.48,2.21-12.77-0.22
			c-5.66-3.21-10.1-7.38-12.2-14.61C450.28,191.93,454.74,179.68,463.91,174.01z M182.09,347.72c8.64-8.99,17.54-18.24,27.47-28.56
			c-63.83-10.37-126.45-20.54-189.08-30.71c-0.01-0.24-0.02-0.48-0.03-0.72c62.59-10.16,125.18-20.32,188.05-30.52
			c-9.28-9.23-18.19-18.09-27.09-26.94c0.28-0.59,0.55-1.18,0.83-1.78c26.59,1.94,53.18,3.89,80.35,5.88
			c-0.27-4.85-0.51-9.21-0.77-13.92c1.11,0.2,1.86,0.22,2.52,0.47c30.14,11.66,58.82,25.91,82.81,48.1
			c5.18,4.8,9.44,10.59,14.2,15.86c2.03,2.25,1.75,4.11,0.02,6.48c-8.64,11.93-19.55,21.43-31.45,29.9
			c-20.15,14.32-42.21,24.97-65.15,33.94c-0.84,0.33-1.75,0.47-2.98,0.79c0.29-4.69,0.56-9.08,0.88-14.17
			C235.33,343.82,208.45,345.79,182.09,347.72z M386.01,404c-0.18-1.26-0.36-2.53-0.55-3.79c-0.69-4.67-1.34-9.1-1.56-13.36
			c0.49-0.04,0.77,0.01,0.83,0.04c0.1,0.08,0.55,0.66,0.81,2.04c0.37,1.94,0.64,3.52,0.73,4.91c0.22,3.55,0.4,7.11,0.58,10.66
			c0.11,2.25,0.23,4.53,0.35,6.82C386.76,408.81,386.35,406.4,386.01,404z M461.32,367.45c-0.71-0.96-1.41-1.92-2.1-2.85
			c-0.99-1.33-1.94-2.62-2.86-3.89c2.98,1.44,6.02,2.44,9.08,3.04C463.75,364.91,462.4,366.17,461.32,367.45z M508.74,382.68
			c2.84,5.44,2.59,11.13,0.92,16.8c-0.89,3.02-3.3,4.63-6.36,4.71c-2.27,0.06-4.67-0.12-6.81-0.82c-9.88-3.23-18.15-8.93-24.34-17.3
			c-5.14-6.96-3.31-11.87,4.96-14.39C489.35,367.95,503.63,372.89,508.74,382.68z M545.55,292.5c-4.72,4.31-10.46,5.32-16.52,3.38
			c-2.52-0.81-5.07-1.98-7.19-3.56c-17.47-12.96-36.12-12.63-54.93-4.16c-6.97,3.14-13.51,7.89-19.21,13.06
			c-7.48,6.78-6.72,11.19,2.01,16.48c7.56,4.58,15.56,8.4,23.26,12.75c3.89,2.2,7.79,4.51,11.26,7.3c5.69,4.59,5.01,8.7-1.6,11.84
			c-7.48,3.56-14.99,3.34-22.18-0.55c-4.83-2.61-9.33-5.85-13.98-8.8c-5.59-3.55-7.75-2.53-8.43,4.03
			c-0.75,7.25,1.63,13.69,5.56,19.56c3.34,5,7.13,9.69,10.56,14.64c3.24,4.67,3.39,7.5,0.93,10.06c-3.16,3.3-7.96,4.16-11.87,1.08
			c-4.27-3.38-8.06-7.45-11.7-11.53c-4.85-5.44-9.14-11.38-14.06-16.76c-3.76-4.11-6.93-4.71-9.77-2.91
			c-3.47,2.2-5.76,7.91-3.78,11.92c1.87,3.8,4.36,7.76,7.62,10.31c8.15,6.39,16.96,11.93,25.39,17.98
			c6.13,4.4,12.34,8.75,18.04,13.68c13.81,11.92,5.52,27.56-4.9,32.65c-14.16,6.91-27.92,5.26-40.88-3.17
			c-6.21-4.04-8.16-10.82-8.8-17.67c-0.97-10.31-1.25-20.69-1.9-31.04c-0.14-2.16-0.51-4.32-0.92-6.46
			c-1.83-9.5-9.35-14.02-18.61-11.21c-4.49,1.36-7.53,4.9-7.36,10.53c0.2,6.61,1.36,13.2,2.28,19.77c0.81,5.7,1.98,11.36,2.8,17.06
			c1.66,11.61-2.75,19.9-13.57,24.78c-10.29,4.64-20.56,6.27-30.14-1.14c-6.78-5.24-10.16-12.6-7.54-21.09
			c2.32-7.54,5.99-14.66,8.95-22.02c2.72-6.76,5.95-13.41,7.75-20.42c2.83-10.99-2.07-19.52-12.46-23.71
			c-6.06-2.44-11.35-1.35-14.81,4.19c-2.95,4.73-5.23,9.99-7.06,15.27c-2.76,7.98-4.78,16.22-7.27,24.3
			c-2.58,8.36-7.4,14.88-15.9,18.07c-4.33,1.63-8.72,1.93-13.16,0.43c-12.74-4.3-20.58-22.1-14.09-33.79
			c4.13-7.43,9.66-14.13,14.91-20.88c1.31-1.69,2.68-3.33,4.08-4.95c20.98-9.04,38.41-18.65,54.05-29.76
			c14.98-10.64,25.94-21.11,34.51-32.92c5.58-7.69,5.23-16.35-0.92-23.15c-1.5-1.66-2.99-3.43-4.55-5.29
			c-3.19-3.8-6.49-7.72-10.47-11.41c-17.98-16.64-38.04-28.66-56.9-37.79c-5.21-9.71-12.35-18.19-18.65-27.22
			c-5.99-8.59-11.68-17.43-16.87-26.51c-3.64-6.37-4.39-13.56-2.96-20.9c2.72-13.99,16.02-20.6,28.75-14.13
			c10.19,5.18,16.15,14.09,20.11,24.33c2.72,7.03,4.56,14.39,6.8,21.61c-0.37,0.15-0.75,0.3-1.12,0.45
			c4.78,11.57,9.28,23.28,14.49,34.66c1.92,4.2,5.15,7.99,8.4,11.36c7.38,7.66,16.55,10.01,26.76,7.05
			c2.03-0.59,4.39-2.49,5.17-4.38c1.95-4.7,3.23-9.7,4.52-14.65c3.63-14,6.85-28.12,10.85-42.02c1.38-4.8,4.12-9.43,7.09-13.51
			c4.7-6.44,10.73-7.15,17.54-2.93c8.83,5.47,12.15,14.23,12.73,23.8c0.66,10.95,0.06,21.98,0.01,32.97
			c-0.03,7.03-0.38,14.09,0.11,21.09c0.23,3.3,1.54,6.81,3.3,9.64c3.13,5.01,7.95,5.14,11.75,0.63c1.96-2.33,3.46-5.06,5.11-7.66
			c1.92-3.03,3.57-6.25,5.68-9.13c3.21-4.4,6.48-5.24,10.14-3.05c4.93,2.95,7.45,8.4,5.2,12.62c-1.59,2.98-3.94,5.67-6.4,8.03
			c-4.06,3.9-8.61,7.28-12.68,11.16c-2.57,2.45-5.02,5.2-6.8,8.24c-1.29,2.19-1.98,5.08-1.94,7.65c0.09,7.36,5.29,11.2,11.88,8.13
			c8.32-3.88,16.24-8.68,24.13-13.41c12.93-7.74,26.2-14.63,41.04-17.9c9.71-2.14,19.51-3.1,29.31-0.49
			c9.4,2.5,16.09,8.19,18.3,17.81C556.23,275.4,553.77,284.99,545.55,292.5z"/>
		<path class="st2" d="M244.56,304.87c5.49,0.83,10.99,1.54,16.52,2.13c5.54,0.49,11.08,0.94,16.65,1.11
			c5.57,0.11,11.16,0.15,16.74-0.27c5.58-0.4,11.16-1.16,16.61-2.53c3.39-0.9,6.81-2.05,9.92-3.69c1.7-0.58,3.38-1.27,5.02-2.14
			c-0.49,0.49-1,0.97-1.52,1.46c-0.51,0.49-1.04,0.98-1.63,1.37c-1.16,0.81-2.33,1.67-3.6,2.31l-1.89,1.03
			c-0.64,0.31-1.3,0.57-1.96,0.86l-1.98,0.84l-2.02,0.7c-5.41,1.83-11.01,2.94-16.61,3.7c-10.67,1.34-21.38,1.42-31.99,0.82
			c7.67,5.37,17.78,8.65,28.87,8.65c23.97,0,43.41-15.27,43.41-34.1s-19.43-34.1-43.41-34.1c-13.12,0-24.87,4.58-32.83,11.8
			c1.44,0.06,2.88,0.12,4.32,0.21c11.14,0.65,22.32,2.05,33.28,4.8c5.07,1.34,10.1,2.99,14.92,5.19l-16.17-12.7
			c18.2,0,32.95,11.59,32.95,25.88l-5.9-4.64c-0.34-0.18-0.69-0.34-1.03-0.51c-2.9-2-6.15-3.55-9.4-4.86
			c-5.25-2.02-10.69-3.45-16.18-4.52c-5.49-1.09-11.04-1.72-16.58-2.29c-5.55-0.5-11.11-0.73-16.66-0.91
			c-5.56-0.08-11.11-0.04-16.65,0.12c-5.54,0.23-11.08,0.48-16.6,0.97c-1.09,0.09-2.18,0.19-3.27,0.29
			c-9.95,0.9-19.86,2.19-29.65,4.18l33.11-0.65c5.51-0.04,11-0.19,16.5-0.15c1.72-0.01,3.44,0,5.16,0
			c-1.75,3.7-2.72,7.71-2.72,11.89c0,4.98,1.37,9.71,3.82,13.98c-2.3-0.27-4.6-0.55-6.9-0.84c-5.46-0.63-10.9-1.45-16.36-2.15
			l-32.79-4.65c9.49,3.16,19.17,5.64,28.93,7.74c1.07,0.23,2.14,0.46,3.21,0.68C233.62,303.05,239.09,303.97,244.56,304.87z"/>
	</g>
</g>
<g id="Capa_7" class="st0">
	<g class="st1">
		<path class="st2" d="M566.93,259.1c0,11.44,0,22.88,0,34.33c-0.33,1.4-0.75,2.79-0.98,4.21c-2.53,15.43-3.94,31.14-7.71,46.26
			C528.55,462.77,421.67,548.18,297.9,552.12c-48.86,1.56-95.17-8.81-138.56-31.57c-3.45-1.81-6.51-2.35-10.38-1.1
			C99.33,535.38,49.66,551.13,0,566.93c0-0.37,0-0.74,0-1.11c0.71-1.69,1.52-3.34,2.11-5.07c15.2-44.81,30.25-89.67,45.73-134.38
			c1.98-5.71,1.33-9.89-1.55-14.86c-20.45-35.34-31.95-73.55-35.1-114.18c-3.39-43.74,2.55-86.34,20.29-126.5
			C71.86,79.4,141.55,23.92,239.66,4.46c10.43-2.07,21.08-3,31.62-4.46c11.44,0,22.88,0,34.33,0c3.63,0.43,7.25,0.9,10.88,1.3
			c49.36,5.34,94.65,21.69,134.85,50.98c60.34,43.97,97.78,102.66,111.25,176.29C564.44,238.67,565.5,248.92,566.93,259.1z
			 M70.01,498.48c28.23-8.96,55.32-17.32,82.21-26.27c5.75-1.91,9.89-1.06,14.81,1.92c48.4,29.3,100.86,39.67,156.66,31.53
			c46.45-6.77,87.45-26.14,121.98-58.04c55.28-51.05,81.46-114.3,75.93-189.6c-4.82-65.64-34.23-119.27-84.55-160.88
			c-42.64-35.27-92.35-52.87-147.95-53.05c-40.69-0.13-78.88,9.64-114.36,29.47c-38.23,21.36-68.44,51.07-90.06,89.2
			c-27.24,48.04-35.64,99.47-26.32,153.78c5.76,33.58,18.87,64.18,38.24,92.2c1.36,1.97,1.6,5.57,0.89,7.98
			c-2.88,9.7-6.34,19.24-9.58,28.83C82.08,462.79,76.25,480.03,70.01,498.48z"/>
		<path class="st3" d="M203.39,150.85c12.29-3.26,17.62,4.41,21.69,14.97c5.63,14.6,11.61,29.1,18.24,43.27
			c3.88,8.3,2.82,15.36-2.36,22.15c-4.47,5.86-9.17,11.57-14.13,17.01c-4,4.38-4.25,8.73-1.36,13.57
			c22.54,37.71,53.85,65.07,95.11,80.73c5.29,2,9.33,0.39,12.71-3.74c6.65-8.14,13.3-16.28,19.92-24.45
			c5.41-6.67,8.44-7.88,16.22-4.33c18.43,8.42,36.66,17.28,54.97,25.94c4.2,1.99,5.57,5.32,5.56,9.86
			c-0.04,30.92-15.85,48.34-49.63,58.13c-13.64,3.95-26.96,2.26-40.24-1.86c-31.06-9.63-61.61-20.31-87.96-40.27
			c-24.77-18.77-45.78-41.13-63.94-66.24c-12-16.59-23.98-33.19-30.3-53.05c-9.87-31.04-5.14-58.85,17.76-82.92
			C183.19,151.69,192.13,148.88,203.39,150.85z"/>
	</g>
</g>
<g id="Capa_8" class="st0">
	<path class="st5" d="M2.95,284.46c7.87,8.7,14.89,18.28,23.46,26.21c39.64,36.67,87.03,60.22,136.85,79.49
		c1.09,0.42,2.34,0.45,4.17,0.78c-0.43-7.78-0.83-14.99-1.27-23c44.91,3.28,88.85,6.5,132.79,9.71c0.46-0.98,0.91-1.96,1.37-2.93
		c-14.71-14.64-29.43-29.27-44.77-44.52c103.89-16.86,207.33-33.65,310.76-50.44c-0.01-0.4-0.03-0.8-0.04-1.2
		c-103.5-16.81-206.99-33.62-312.47-50.74c16.41-17.06,31.11-32.35,45.4-47.2c-43.57,3.19-87.98,6.44-133.18,9.75
		c0.52-8.41,0.97-15.66,1.46-23.41c-2.04,0.53-3.54,0.76-4.93,1.3c-37.9,14.82-74.37,32.43-107.66,56.09
		c-19.68,13.98-37.7,29.7-51.98,49.41C0.07,277.68-0.4,280.75,2.95,284.46z M118.08,224.37c18.32,0,35.03,5.41,47.71,14.29
		c-17.53-0.98-35.23-0.85-52.86,1.36c-9.25,1.27-18.51,3.09-27.45,6.12l-3.34,1.15l-3.28,1.38c-1.08,0.48-2.17,0.91-3.23,1.43
		l-3.13,1.7c-2.1,1.06-4.03,2.48-5.94,3.82c-0.97,0.64-1.84,1.45-2.69,2.27c-0.86,0.79-1.69,1.6-2.51,2.41
		c2.71-1.44,5.48-2.58,8.29-3.54c5.15-2.71,10.8-4.6,16.4-6.09c9.01-2.27,18.23-3.52,27.45-4.18c9.22-0.68,18.45-0.62,27.66-0.44
		c9.2,0.29,18.37,1.03,27.52,1.84c9.13,0.98,18.23,2.16,27.3,3.52c9.05,1.49,18.08,3.01,27.04,4.92c1.77,0.36,3.54,0.74,5.31,1.12
		c16.14,3.47,32.13,7.57,47.81,12.78l-54.19-7.68c-9.03-1.16-18.01-2.52-27.04-3.55c-3.8-0.48-7.6-0.94-11.41-1.38
		c4.04,7.05,6.31,14.87,6.31,23.1c0,6.91-1.59,13.53-4.49,19.65c2.84,0,5.69,0.01,8.53,0.01c9.08,0.07,18.17-0.2,27.27-0.26
		l54.72-1.07c-16.19,3.28-32.57,5.42-49.01,6.9c-1.8,0.16-3.6,0.32-5.41,0.47c-9.13,0.82-18.28,1.22-27.44,1.61
		c-9.16,0.26-18.34,0.32-27.52,0.19c-9.18-0.3-18.37-0.67-27.54-1.5c-9.16-0.93-18.33-1.99-27.4-3.78
		c-9.07-1.77-18.07-4.13-26.74-7.47c-5.38-2.16-10.75-4.72-15.54-8.03c-0.57-0.28-1.14-0.55-1.71-0.84l-9.76-7.66
		c0,23.62,24.38,42.78,54.45,42.78l-26.72-20.99c7.96,3.65,16.27,6.37,24.66,8.58c18.12,4.55,36.59,6.85,55,7.93
		c2.38,0.13,4.76,0.25,7.14,0.34c-13.15,11.94-32.57,19.5-54.25,19.5c-39.62,0-71.73-25.23-71.73-56.36S78.46,224.37,118.08,224.37z
		"/>
</g>
<g id="Capa_9" class="st0">
	<g class="st1">
		<path class="st2" d="M534.07,221.45c-15.24-4.06-30.48-2.56-45.59,0.77c-23.09,5.08-43.73,15.8-63.84,27.84
			c-12.28,7.36-24.6,14.83-37.54,20.86c-10.25,4.78-18.34-1.2-18.48-12.65c-0.05-3.99,1.01-8.49,3.02-11.9
			c2.78-4.72,6.59-9,10.58-12.81c6.33-6.04,13.42-11.3,19.73-17.36c3.82-3.67,7.47-7.86,9.95-12.49c3.51-6.56-0.42-15.03-8.09-19.63
			c-5.69-3.41-10.79-2.1-15.78,4.74c-3.28,4.49-5.85,9.49-8.84,14.21c-2.55,4.04-4.89,8.28-7.94,11.92
			c-5.9,7.02-13.41,6.82-18.27-0.98c-2.75-4.4-4.79-9.87-5.14-15c-0.75-10.89-0.21-21.87-0.16-32.81c0.07-17.1,1-34.25-0.02-51.29
			c-0.89-14.88-6.06-28.52-19.8-37.02c-10.6-6.56-19.98-5.46-27.29,4.56c-4.63,6.35-8.88,13.55-11.03,21.02
			c-6.23,21.62-11.22,43.58-16.87,65.37c-2,7.7-3.99,15.48-7.03,22.8c-1.22,2.94-4.9,5.9-8.05,6.82
			c-15.88,4.61-30.14,0.96-41.62-10.96c-5.06-5.25-10.08-11.14-13.07-17.68c-8.1-17.7-21.37-54.38-20.79-54.62
			c-3.48-11.22-6.34-22.69-10.57-33.62c-6.17-15.93-15.44-29.79-31.29-37.85c-19.8-10.07-40.48,0.21-44.72,21.98
			c-2.22,11.41-1.05,22.61,4.61,32.51c8.08,14.14,16.92,27.89,26.24,41.25c9.8,14.05,20.91,27.24,29.01,42.35
			c29.35,14.2,60.54,32.9,88.52,58.79c6.19,5.73,11.33,11.84,16.29,17.74c2.44,2.9,4.74,5.65,7.09,8.24
			c9.57,10.59,10.11,24.05,1.43,36.02c-13.32,18.38-30.38,34.66-53.68,51.22c-24.32,17.29-51.44,32.23-84.08,46.29
			c-2.17,2.53-4.3,5.08-6.34,7.7c-8.17,10.51-16.78,20.92-23.2,32.49c-10.09,18.19,2.11,45.89,21.92,52.57
			c6.92,2.33,13.74,1.86,20.48-0.67c13.22-4.97,20.72-15.1,24.73-28.11c3.88-12.57,7.02-25.38,11.31-37.8
			c2.84-8.22,6.39-16.4,10.98-23.75c5.39-8.63,13.62-10.32,23.04-6.52c16.17,6.52,23.8,19.8,19.39,36.89
			c-2.81,10.9-7.83,21.25-12.06,31.76c-4.6,11.44-10.31,22.52-13.92,34.25c-4.07,13.21,1.19,24.66,11.74,32.81
			c14.91,11.52,30.88,8.99,46.89,1.77c16.83-7.59,23.7-20.49,21.11-38.55c-1.27-8.87-3.1-17.66-4.35-26.54
			c-1.44-10.22-3.23-20.48-3.55-30.76c-0.27-8.75,4.46-14.26,11.44-16.38c14.41-4.36,26.11,2.66,28.95,17.44
			c0.64,3.32,1.23,6.68,1.44,10.04c1.01,16.1,1.45,32.24,2.95,48.29c1,10.66,4.03,21.21,13.69,27.49
			c20.16,13.12,41.57,15.68,63.59,4.93c16.21-7.91,29.1-32.25,7.62-50.79c-8.87-7.66-18.53-14.43-28.07-21.28
			c-13.11-9.41-26.81-18.03-39.5-27.97c-5.07-3.97-8.94-10.13-11.85-16.04c-3.07-6.23,0.49-15.12,5.88-18.54
			c4.41-2.8,9.36-1.87,15.2,4.52c7.65,8.36,14.33,17.6,21.87,26.07c5.66,6.36,11.55,12.69,18.2,17.94
			c6.07,4.8,13.54,3.46,18.46-1.67c3.83-4,3.59-8.39-1.44-15.66c-5.33-7.69-11.22-15-16.42-22.77c-6.11-9.14-9.82-19.16-8.65-30.43
			c1.05-10.21,4.42-11.79,13.12-6.27c7.23,4.59,14.23,9.62,21.74,13.68c11.19,6.06,22.88,6.39,34.51,0.86
			c10.29-4.89,11.34-11.28,2.49-18.42c-5.39-4.35-11.46-7.94-17.51-11.36c-11.98-6.76-24.44-12.71-36.19-19.83
			c-13.59-8.23-14.76-15.09-3.13-25.64c8.86-8.04,19.03-15.43,29.88-20.31c29.27-13.17,58.28-13.69,85.46,6.48
			c3.3,2.45,7.26,4.27,11.19,5.53c9.42,3.03,18.36,1.45,25.7-5.26c12.79-11.69,16.61-26.61,12.82-43.07
			C559.09,234.2,548.69,225.35,534.07,221.45z"/>
		<path class="st2" d="M425.06,173.27c6.67,3.78,13.48,4.21,19.86,0.34c6.22-3.78,12.62-7.82,17.53-13.08
			c16.62-17.81,13.73-37.98-6.67-51.5c-10.83-7.18-21.91-8.03-33.08-1.12c-14.27,8.82-21.2,27.87-16.62,42.64
			C409.36,161.79,416.25,168.27,425.06,173.27z"/>
		<path class="st2" d="M443.25,415.39c-12.87,3.92-15.72,11.57-7.72,22.39c9.63,13.03,22.5,21.89,37.87,26.92
			c3.33,1.09,7.07,1.38,10.59,1.28c4.76-0.13,8.5-2.62,9.89-7.33c2.6-8.82,2.99-17.68-1.43-26.14
			C484.51,417.29,462.28,409.6,443.25,415.39z"/>
		<path class="st2" d="M243.35,53.7c-0.89-1.76-2.05-3.42-3.32-4.93c-5.56-6.64-10.49-6.11-13.61,2.06
			c-2.17,5.69-3.69,11.82-4.3,17.88c-1.43,14.29-2.05,28.71,5.1,41.95c5.03,9.31,15.76,9.92,21.72,1.13
			c2.14-3.16,3.4-7.2,4.08-11.02c2.1-11.86-0.74-23.29-3.93-34.93C247.28,61.95,245.41,57.77,243.35,53.7z"/>
		<path class="st2" d="M81.48,311.48c8.53,1.29,17.1,2.39,25.69,3.32c8.61,0.76,17.24,1.46,25.9,1.73
			c8.67,0.17,17.35,0.23,26.03-0.41c8.68-0.62,17.36-1.8,25.84-3.94c5.27-1.41,10.59-3.19,15.44-5.73c2.65-0.9,5.25-1.98,7.8-3.33
			c-0.76,0.76-1.55,1.52-2.36,2.27c-0.8,0.77-1.61,1.53-2.53,2.13c-1.8,1.26-3.62,2.6-5.6,3.6l-2.94,1.6
			c-1,0.48-2.03,0.89-3.04,1.34l-3.08,1.3l-3.14,1.09c-8.42,2.85-17.13,4.57-25.84,5.76c-16.6,2.08-33.26,2.21-49.76,1.28
			c11.93,8.36,27.67,13.45,44.91,13.45c37.29,0,67.53-23.75,67.53-53.05s-30.23-53.05-67.53-53.05c-20.41,0-38.68,7.12-51.06,18.36
			c2.24,0.09,4.48,0.19,6.72,0.32c17.34,1.02,34.72,3.19,51.78,7.47c7.89,2.08,15.72,4.64,23.21,8.08l-25.15-19.76
			c28.31,0,51.25,18.03,51.25,40.27l-9.18-7.21c-0.53-0.28-1.07-0.53-1.61-0.79c-4.51-3.12-9.56-5.53-14.63-7.56
			c-8.16-3.15-16.63-5.37-25.17-7.04c-8.54-1.69-17.17-2.68-25.79-3.56c-8.63-0.78-17.28-1.13-25.92-1.41
			c-8.64-0.12-17.28-0.06-25.91,0.18c-8.62,0.36-17.24,0.75-25.83,1.52c-1.7,0.14-3.39,0.29-5.09,0.44
			c-15.47,1.4-30.89,3.41-46.13,6.5l51.51-1c8.57-0.06,17.12-0.3,25.67-0.24c2.68-0.01,5.36,0,8.03,0
			c-2.73,5.76-4.23,11.99-4.23,18.5c0,7.75,2.13,15.11,5.94,21.75c-3.58-0.42-7.16-0.86-10.74-1.3c-8.49-0.97-16.95-2.25-25.45-3.35
			l-51.01-7.23c14.76,4.91,29.82,8.77,45.01,12.03c1.66,0.36,3.33,0.71,5,1.06C64.46,308.65,72.97,310.07,81.48,311.48z"/>
	</g>
</g>
<g id="Capa_10" class="st0">
</g>
</svg>
